<svg version="1.0" xmlns="http://www.w3.org/2000/svg"
 width="194.000000pt" height="148.000000pt" viewBox="0 0 194.000000 148.000000"
 preserveAspectRatio="xMidYMid meet">

<g transform="translate(0.000000,148.000000) scale(0.100000,-0.100000)"
fill="#000000" stroke="none">
<path d="M930 1322 c-41 -31 -673 -514 -679 -519 -3 -2 3 -11 12 -20 19 -20
-24 -50 373 256 175 133 322 245 329 247 10 4 66 -37 464 -344 113 -86 211
-161 219 -166 9 -5 20 -3 30 8 9 8 14 17 11 19 -14 11 -568 434 -635 485 -45
34 -83 62 -85 61 -2 0 -20 -12 -39 -27z"/>
<path d="M843 1092 c-61 -48 -184 -142 -272 -210 l-161 -123 2 -317 3 -317
200 0 200 0 3 248 2 247 150 0 150 0 2 -248 3 -247 200 0 200 0 3 317 2 317
-157 121 c-87 66 -211 161 -275 210 -64 50 -122 90 -130 90 -7 -1 -63 -40
-125 -88z m382 -157 l255 -196 0 -284 0 -285 -160 0 -160 0 -2 247 -3 248
-185 0 -185 0 -3 -248 -2 -247 -160 0 -160 0 0 285 0 284 253 195 c138 107
253 195 255 195 2 1 118 -87 257 -194z"/>
</g>
</svg>
